<svg width="32" height="32" viewBox="0 0 32 32" fill="none" xmlns="http://www.w3.org/2000/svg">
<path d="M31.6682 17.373L31.0835 16.3919L30.806 17.4078L31.0251 17.4255C31.0251 17.4255 31.1273 18.1019 31.0106 18.9215C30.8936 19.7415 30.1045 19.5104 30.1045 19.0828C30.1045 18.6549 30.1045 17.2825 30.1045 17.2825H30.3385L29.8124 16L29.2862 17.2824H29.5201C29.5201 17.2824 29.5201 18.6549 29.5201 19.0828C29.5201 19.5103 28.731 19.7415 28.614 18.9214C28.4974 18.1019 28.5995 17.4255 28.5995 17.4255L28.8187 17.4078L28.5411 16.3919L27.9564 17.373L28.1904 17.4078C28.1904 17.4078 28.0586 18.886 28.2049 19.3853C28.351 19.8843 28.585 20.0971 29.0089 20.2228C29.3543 20.324 29.4035 20.5613 29.4035 20.8818H29.5553V24.8308C29.3523 24.9537 29.205 25.2111 29.1705 25.52C28.8396 25.6908 28.2251 25.9882 27.9509 25.9882C27.7073 25.7826 27.5417 25.4557 27.4139 25.0964L27.5571 24.7569L28.0226 25.3114L28.1901 24.5804C28.1901 24.5804 28.6369 24.782 28.9907 25.0848C28.9907 23.5218 27.9853 22.3373 27.9853 22.3373L26.8556 23.2171C26.9291 23.0896 26.9969 22.9569 27.0515 22.8145C27.5273 22.2521 27.9233 21.4134 27.9762 20.8004C27.6346 20.6443 27.4001 20.9215 27.4001 20.9215C27.4001 20.7257 27.3214 20.4189 27.3214 20.4189C27.2937 20.3003 27.2589 19.9214 27.0648 19.5292C27.1746 19.2377 27.2875 18.7924 27.1867 18.3346C27.0099 17.5307 26.5951 17.3599 26.4631 17.2955C26.331 17.2309 26.2029 17.4163 26.3317 17.534C26.5435 17.7277 26.5987 18.2697 26.3004 18.7326C26.0037 18.5746 25.6178 18.4722 25.1121 18.4722C24.6065 18.4722 24.2205 18.5746 23.9239 18.7326C23.6256 18.2697 23.6807 17.7277 23.8926 17.534C24.0213 17.4163 23.8932 17.2309 23.7611 17.2955C23.6292 17.3599 23.2144 17.5307 23.0375 18.3346C22.9367 18.7924 23.0497 19.2377 23.1595 19.5292C22.9654 19.9214 22.9306 20.3003 22.9028 20.4189C22.9028 20.4189 22.8241 20.7257 22.8241 20.9215C22.8241 20.9215 22.5897 20.6443 22.2481 20.8004C22.2968 21.3643 22.6349 22.1222 23.0591 22.6782C23.12 22.8639 23.2025 23.0353 23.2945 23.1976L21.9649 22.1621C21.9649 22.1621 20.8123 23.5199 20.8123 25.3117C21.2179 24.9646 21.7302 24.7334 21.7302 24.7334L21.9222 25.5715L22.4558 24.936L22.5071 25.0577C22.3769 25.5374 22.2921 26.1004 22.3053 26.743C22.3479 28.8248 21.9637 29.8139 21.9637 29.8139C21.9637 29.8139 22.8602 29.7617 22.9882 28.877C23.1163 29.2414 23.5004 29.1374 23.287 28.6168C23.1539 28.2917 23.1705 27.1136 23.4409 26.2751C23.6176 27.0678 23.8199 27.9736 23.8677 28.148C23.9148 28.3203 23.9359 29.0633 23.9454 29.7211C23.88 29.837 23.8066 29.9456 23.7251 30.045C23.383 30.4616 22.9126 30.7187 22.3908 30.719C21.869 30.7187 21.3986 30.4616 21.0564 30.045C20.7146 29.6278 20.5039 29.0541 20.5038 28.4183C20.5039 28.0394 20.5805 27.6838 20.7132 27.3691L21.0672 27.6799L21.4942 25.7542L20 26.743L20.3787 27.0754C20.1991 27.4746 20.0939 27.9315 20.0941 28.4183C20.0942 29.9645 21.1221 31.2186 22.3908 31.2186C22.9947 31.2186 23.5424 30.9322 23.9522 30.4677C23.9531 30.644 23.9531 30.7696 23.9531 30.8026C23.9531 30.9587 23.5262 31.5315 23.6542 31.6876C23.7823 31.8438 25.0203 31.6876 25.0203 31.6876V29.0331H25.1653H25.3102V31.6877C25.3102 31.6877 26.5483 31.8438 26.6763 31.6877C26.8044 31.5315 26.3775 30.9588 26.3775 30.8026C26.3775 30.6465 26.3775 28.4603 26.4629 28.1481C26.5117 27.97 26.7217 27.0288 26.901 26.2242C27.1357 26.6292 27.5131 27.2374 27.6628 27.2374C27.8601 27.2374 29.099 26.5115 29.3923 26.338C29.4413 26.3956 29.4954 26.4456 29.5553 26.4819V32H30.0693V26.4951C30.314 26.3618 30.4875 26.0373 30.4875 25.6564C30.4875 25.2754 30.314 24.9509 30.0693 24.8177V20.8818H30.2211C30.2211 20.5613 30.2705 20.324 30.6161 20.2228C31.0395 20.0971 31.2735 19.8843 31.4196 19.3853C31.5659 18.886 31.4341 17.4078 31.4341 17.4078L31.6682 17.373ZM24.1836 21.9542C23.8847 21.798 23.8848 21.2774 23.8848 21.2774L24.8667 21.6941C24.8667 21.6941 24.4825 22.1103 24.1836 21.9542ZM26.1048 21.9542C25.8059 22.1103 25.4217 21.694 25.4217 21.694L26.4036 21.2774C26.4036 21.2774 26.4037 21.798 26.1048 21.9542Z" fill="black"/>
<path d="M8 2.1218C7.76264 2.1218 5.67972 2.09209 5.67972 1.0609C5.67972 0.0297052 7.76264 0 8 0C8.23736 0 10.3203 0.0297052 10.3203 1.0609C10.3203 2.09209 8.23736 2.1218 8 2.1218ZM6.30935 1.0609C6.5048 1.20783 7.09023 1.41453 8 1.41453C8.90977 1.41453 9.4952 1.20783 9.69065 1.0609C9.4952 0.913964 8.90977 0.707265 8 0.707265C7.09023 0.707265 6.5048 0.913964 6.30935 1.0609ZM15.8304 9.34072L13.0869 5.99589C12.5204 5.30047 11.5996 5.30162 11.0346 5.99518L10.7524 6.33931C10.7362 6.00848 10.4255 5.73849 10.3464 5.43533C10.2594 5.11353 10.3899 4.65734 10.2304 4.39212C10.0679 4.11982 9.6706 4.13043 9.45018 3.9324C9.22975 3.7379 9.11373 3.27464 8.8527 3.16855C8.59747 3.06953 8.28133 3.35951 8 3.35951C7.71867 3.35951 7.40253 3.06953 7.1473 3.16855C6.88627 3.27464 6.77025 3.7379 6.54983 3.9324C6.3294 4.13043 5.93205 4.11982 5.76963 4.39212C5.61011 4.65734 5.74063 5.11353 5.65362 5.43533C5.57451 5.73844 5.26385 6.00853 5.24764 6.33931L4.96598 5.99584C4.39943 5.30042 3.47868 5.30157 2.91366 5.99513L0.169381 9.34098C0.0597844 9.47497 -0.00028899 9.65302 1.04532e-06 9.84226C0.00029108 10.0313 0.0611984 10.209 0.171085 10.3423L0.425156 10.6506C0.632459 10.9027 0.931448 11.0231 1.23551 10.9337L1.5853 11.3578C1.80565 11.626 2.11156 11.7267 2.39678 11.6398L2.74544 12.0651C2.96467 12.3319 3.27054 12.4327 3.55634 12.3488L3.90416 12.7706C4.06872 12.9735 4.28712 13.0854 4.51965 13.0854C4.62048 13.0854 4.71753 13.0606 4.80969 13.0204C4.80962 13.7274 5.23067 14.1453 5.67972 14.1453H10.3203C10.7591 14.1453 11.1904 13.7409 11.1904 13.0203C11.5276 13.1677 11.8686 13.051 12.0939 12.7729L12.4437 12.3488C12.7303 12.4329 13.0357 12.3319 13.2546 12.0649L13.6033 11.6398C13.8885 11.7261 14.1944 11.626 14.4142 11.3584L14.7651 10.933C15.2848 11.0852 15.5389 10.694 15.8289 10.3425C15.9388 10.209 15.9997 10.0314 16 9.8423C16.0003 9.65307 15.9403 9.47506 15.8304 9.34072ZM6.83986 6.63061C6.83986 5.913 7.28028 5.31846 7.85299 5.22713C7.97451 5.55314 8.16992 5.83565 8.41776 6.03956C8.63416 6.21792 8.88 6.32552 9.13832 6.35712C9.15307 6.44584 9.16014 6.5365 9.16014 6.63061V7.33788C9.16014 8.29759 8.38702 8.97719 7.63234 8.677C7.18442 8.49775 6.83986 7.97614 6.83986 7.33788V6.63061ZM4.80962 11.5815V12.167L4.7221 12.2737C4.61333 12.4084 4.42782 12.4106 4.31507 12.2715L4.05882 11.9609L4.40853 11.5345C4.52183 11.3963 4.52183 11.1725 4.40853 11.0344C4.29524 10.8963 4.11168 10.8963 3.99839 11.0344L3.56391 11.564C3.4549 11.6959 3.27696 11.7127 3.15547 11.5648L2.89941 11.2526L3.82843 10.1199C3.94172 9.98177 3.94172 9.75796 3.82843 9.61982C3.71513 9.48169 3.53158 9.48169 3.41828 9.61982L2.40374 10.8567C2.30948 10.9726 2.12418 11.0144 1.99475 10.8568L1.73869 10.5464L3.94034 7.86718L5.66649 9.97182C5.16262 10.2493 4.80962 10.8648 4.80962 11.5815ZM4.35049 7.36705C4.12361 7.09078 3.75483 7.09095 3.52853 7.36688L1.24367 10.1495C1.13114 10.2856 0.953274 10.2938 0.834685 10.1497L0.579781 9.84076L3.32435 6.49455C3.65292 6.0919 4.22559 6.09119 4.55529 6.49526L5.68378 7.87133C5.68353 8.04678 5.69462 8.21378 5.76967 8.3387C5.97139 8.67686 6.29445 8.8619 6.71399 8.76439C6.75357 8.8169 6.79574 8.86659 6.8399 8.91419V9.81331H6.3567L4.35049 7.36705ZM8.97372 12.8059L8.28547 13.6473C8.12794 13.8399 7.87209 13.8399 7.71457 13.6473L7.02632 12.8059C6.7758 12.4996 6.7241 11.9462 6.94844 11.6111C7.1837 11.2596 7.58391 11.1981 7.8775 11.4255C7.77095 11.0727 7.5639 10.4074 7.41997 10.0749V9.33961C7.79212 9.50047 8.22046 9.49402 8.58011 9.33842V10.0749C8.43625 10.4072 8.22866 11.0743 8.12258 11.4255C8.41616 11.1981 8.81638 11.2596 9.05163 11.6111C9.27594 11.9462 9.22424 12.4996 8.97372 12.8059ZM14.0046 10.8575C13.8769 11.0142 13.6918 10.9734 13.5968 10.8576L12.5816 9.61991C12.4684 9.48177 12.2848 9.48177 12.1715 9.61991C12.0582 9.75805 12.0582 9.98186 12.1715 10.12L13.1004 11.2528L12.8445 11.5648C12.7246 11.7109 12.547 11.6974 12.4366 11.5649L12.0015 11.0345C11.8882 10.8963 11.7047 10.8963 11.5914 11.0345C11.4781 11.1726 11.4781 11.3964 11.5914 11.5346L11.941 11.961L11.6829 12.2737C11.5741 12.4084 11.388 12.41 11.2765 12.2722L11.1904 12.1671V11.5568C11.1904 10.847 10.8394 10.2372 10.3391 9.96546L12.0613 7.86727L14.2613 10.5464L14.0046 10.8575ZM15.1648 10.1502C15.0481 10.2929 14.8689 10.2856 14.7569 10.1502L12.4715 7.36688C12.2446 7.0906 11.8758 7.09095 11.6495 7.36723L9.64334 9.81331H9.16014V8.91525C9.20448 8.86725 9.24686 8.81712 9.28652 8.76434C9.3508 8.77911 9.40892 8.79122 9.45018 8.79842C9.74021 8.84086 10.0679 8.611 10.2304 8.3387C10.3054 8.21374 10.3165 8.04669 10.3163 7.8712L11.4453 6.49455C11.7739 6.0919 12.3466 6.09119 12.6763 6.49526L15.42 9.84098L15.1648 10.1502Z" fill="black"/>
<line x1="4.64645" y1="27.4506" x2="27.4506" y2="4.64645" stroke="black"/>
</svg>
